<svg width="32" height="32" viewBox="0 0 32 32" xmlns="http://www.w3.org/2000/svg">
  <defs>
    <linearGradient id="favicon-gradient" x1="0%" y1="0%" x2="100%" y2="100%">
      <stop offset="0%" style="stop-color:#6366f1;stop-opacity:1" />
      <stop offset="100%" style="stop-color:#8b5cf6;stop-opacity:1" />
    </linearGradient>
  </defs>
  
  <!-- Background -->
  <rect x="0" y="0" width="32" height="32" rx="6" fill="url(#favicon-gradient)" />
  
  <!-- QR Pattern -->
  <g fill="white">
    <!-- Corner squares -->
    <rect x="4" y="4" width="6" height="6" rx="1"/>
    <rect x="22" y="4" width="6" height="6" rx="1"/>
    <rect x="4" y="22" width="6" height="6" rx="1"/>
    
    <!-- Corner centers -->
    <rect x="5" y="5" width="4" height="4" rx="1" fill="#8b5cf6"/>
    <rect x="23" y="5" width="4" height="4" rx="1" fill="#8b5cf6"/>
    <rect x="5" y="23" width="4" height="4" rx="1" fill="#8b5cf6"/>
    
    <!-- Data pattern -->
    <rect x="12" y="6" width="2" height="2"/>
    <rect x="16" y="6" width="2" height="2"/>
    <rect x="12" y="10" width="2" height="2"/>
    <rect x="16" y="10" width="2" height="2"/>
    
    <!-- Center -->
    <rect x="13" y="13" width="6" height="6" rx="1"/>
    <rect x="14" y="14" width="4" height="4" rx="1" fill="#06b6d4"/>
    
    <!-- Bottom pattern -->
    <rect x="12" y="24" width="2" height="2"/>
    <rect x="16" y="24" width="2" height="2"/>
    <rect x="22" y="12" width="2" height="2"/>
    <rect x="26" y="12" width="2" height="2"/>
    <rect x="22" y="16" width="2" height="2"/>
    <rect x="26" y="16" width="2" height="2"/>
  </g>
</svg>