<svg width="512" height="512" viewBox="0 0 512 512" xmlns="http://www.w3.org/2000/svg">
  <defs>
    <linearGradient id="primaryGradient" x1="0%" y1="0%" x2="100%" y2="100%">
      <stop offset="0%" style="stop-color:#6366f1;stop-opacity:1" />
      <stop offset="100%" style="stop-color:#8b5cf6;stop-opacity:1" />
    </linearGradient>
    <linearGradient id="accentGradient" x1="0%" y1="0%" x2="100%" y2="100%">
      <stop offset="0%" style="stop-color:#06b6d4;stop-opacity:1" />
      <stop offset="100%" style="stop-color:#10b981;stop-opacity:1" />
    </linearGradient>
  </defs>
  
  <!-- Background circle -->
  <circle cx="256" cy="256" r="240" fill="url(#primaryGradient)" />
  
  <!-- QR Code pattern -->
  <g fill="white">
    <!-- Corner squares -->
    <rect x="96" y="96" width="80" height="80" rx="8"/>
    <rect x="336" y="96" width="80" height="80" rx="8"/>
    <rect x="96" y="336" width="80" height="80" rx="8"/>
    
    <!-- Corner square centers -->
    <rect x="112" y="112" width="48" height="48" rx="4" fill="url(#primaryGradient)"/>
    <rect x="352" y="112" width="48" height="48" rx="4" fill="url(#primaryGradient)"/>
    <rect x="112" y="352" width="48" height="48" rx="4" fill="url(#primaryGradient)"/>
    
    <!-- Data pattern squares -->
    <rect x="208" y="128" width="16" height="16" rx="2"/>
    <rect x="240" y="128" width="16" height="16" rx="2"/>
    <rect x="272" y="128" width="16" height="16" rx="2"/>
    <rect x="304" y="128" width="16" height="16" rx="2"/>
    
    <rect x="208" y="160" width="16" height="16" rx="2"/>
    <rect x="272" y="160" width="16" height="16" rx="2"/>
    <rect x="304" y="160" width="16" height="16" rx="2"/>
    
    <rect x="208" y="192" width="16" height="16" rx="2"/>
    <rect x="240" y="192" width="16" height="16" rx="2"/>
    <rect x="304" y="192" width="16" height="16" rx="2"/>
    
    <!-- Center pattern -->
    <rect x="224" y="224" width="64" height="64" rx="8"/>
    <rect x="240" y="240" width="32" height="32" rx="4" fill="url(#accentGradient)"/>
    
    <!-- Bottom pattern -->
    <rect x="208" y="320" width="16" height="16" rx="2"/>
    <rect x="240" y="320" width="16" height="16" rx="2"/>
    <rect x="272" y="320" width="16" height="16" rx="2"/>
    <rect x="304" y="320" width="16" height="16" rx="2"/>
    
    <rect x="208" y="352" width="16" height="16" rx="2"/>
    <rect x="272" y="352" width="16" height="16" rx="2"/>
    
    <rect x="208" y="384" width="16" height="16" rx="2"/>
    <rect x="240" y="384" width="16" height="16" rx="2"/>
    <rect x="272" y="384" width="16" height="16" rx="2"/>
    
    <!-- Right side pattern -->
    <rect x="352" y="208" width="16" height="16" rx="2"/>
    <rect x="384" y="208" width="16" height="16" rx="2"/>
    <rect x="352" y="240" width="16" height="16" rx="2"/>
    <rect x="384" y="240" width="16" height="16" rx="2"/>
    <rect x="352" y="272" width="16" height="16" rx="2"/>
    <rect x="384" y="272" width="16" height="16" rx="2"/>
  </g>
</svg>