<svg width="192" height="192" viewBox="0 0 192 192" xmlns="http://www.w3.org/2000/svg">
  <defs>
    <linearGradient id="icon192-gradient" x1="0%" y1="0%" x2="100%" y2="100%">
      <stop offset="0%" style="stop-color:#6366f1;stop-opacity:1" />
      <stop offset="100%" style="stop-color:#8b5cf6;stop-opacity:1" />
    </linearGradient>
    <linearGradient id="accent192" x1="0%" y1="0%" x2="100%" y2="100%">
      <stop offset="0%" style="stop-color:#06b6d4;stop-opacity:1" />
      <stop offset="100%" style="stop-color:#10b981;stop-opacity:1" />
    </linearGradient>
  </defs>
  
  <!-- Background -->
  <rect x="0" y="0" width="192" height="192" rx="32" fill="url(#icon192-gradient)" />
  
  <!-- QR Code pattern -->
  <g fill="white">
    <!-- Corner squares -->
    <rect x="24" y="24" width="36" height="36" rx="4"/>
    <rect x="132" y="24" width="36" height="36" rx="4"/>
    <rect x="24" y="132" width="36" height="36" rx="4"/>
    
    <!-- Corner square centers -->
    <rect x="30" y="30" width="24" height="24" rx="2" fill="url(#icon192-gradient)"/>
    <rect x="138" y="30" width="24" height="24" rx="2" fill="url(#icon192-gradient)"/>
    <rect x="30" y="138" width="24" height="24" rx="2" fill="url(#icon192-gradient)"/>
    
    <!-- Data pattern squares -->
    <rect x="72" y="36" width="8" height="8" rx="1"/>
    <rect x="84" y="36" width="8" height="8" rx="1"/>
    <rect x="96" y="36" width="8" height="8" rx="1"/>
    <rect x="108" y="36" width="8" height="8" rx="1"/>
    
    <rect x="72" y="48" width="8" height="8" rx="1"/>
    <rect x="96" y="48" width="8" height="8" rx="1"/>
    <rect x="108" y="48" width="8" height="8" rx="1"/>
    
    <rect x="72" y="60" width="8" height="8" rx="1"/>
    <rect x="84" y="60" width="8" height="8" rx="1"/>
    <rect x="108" y="60" width="8" height="8" rx="1"/>
    
    <!-- Center pattern -->
    <rect x="78" y="78" width="36" height="36" rx="4"/>
    <rect x="84" y="84" width="24" height="24" rx="2" fill="url(#accent192)"/>
    
    <!-- Bottom pattern -->
    <rect x="72" y="132" width="8" height="8" rx="1"/>
    <rect x="84" y="132" width="8" height="8" rx="1"/>
    <rect x="96" y="132" width="8" height="8" rx="1"/>
    <rect x="108" y="132" width="8" height="8" rx="1"/>
    
    <rect x="72" y="144" width="8" height="8" rx="1"/>
    <rect x="96" y="144" width="8" height="8" rx="1"/>
    
    <rect x="72" y="156" width="8" height="8" rx="1"/>
    <rect x="84" y="156" width="8" height="8" rx="1"/>
    <rect x="96" y="156" width="8" height="8" rx="1"/>
    
    <!-- Right side pattern -->
    <rect x="132" y="72" width="8" height="8" rx="1"/>
    <rect x="144" y="72" width="8" height="8" rx="1"/>
    <rect x="156" y="72" width="8" height="8" rx="1"/>
    <rect x="132" y="84" width="8" height="8" rx="1"/>
    <rect x="144" y="84" width="8" height="8" rx="1"/>
    <rect x="156" y="84" width="8" height="8" rx="1"/>
    <rect x="132" y="96" width="8" height="8" rx="1"/>
    <rect x="144" y="96" width="8" height="8" rx="1"/>
    <rect x="156" y="96" width="8" height="8" rx="1"/>
  </g>
</svg>